<?xml version="1.0" standalone="no"?>
<!DOCTYPE svg PUBLIC "-//W3C//DTD SVG 20010904//EN"
 "http://www.w3.org/TR/2001/REC-SVG-20010904/DTD/svg10.dtd">
<svg version="1.0" xmlns="http://www.w3.org/2000/svg"
 width="256.000000pt" height="256.000000pt" viewBox="0 0 256.000000 256.000000"
 preserveAspectRatio="xMidYMid meet">

<g transform="translate(0.000000,256.000000) scale(0.100000,-0.100000)"
fill="#754ef9" stroke="none">
<path d="M2000 2244 c-275 -59 -479 -206 -580 -420 -34 -73 -60 -169 -60 -228
l0 -39 63 59 c110 106 232 175 382 216 73 19 110 22 418 26 l337 4 0 199 0
199 -247 -1 c-172 0 -268 -5 -313 -15z"/>
<path d="M1021 2070 c-92 -20 -163 -79 -208 -175 l-28 -60 -5 -620 -5 -620
-24 -60 c-31 -77 -83 -130 -144 -147 -26 -7 -47 -15 -47 -18 0 -11 138 -59
205 -71 175 -30 325 37 385 173 34 78 39 172 40 740 0 509 1 550 19 607 11 34
31 77 45 95 28 37 98 76 137 76 22 1 23 2 6 14 -9 7 -54 25 -98 40 -89 30
-208 41 -278 26z"/>
<path d="M233 1875 c-105 -32 -170 -94 -209 -200 -17 -46 -19 -90 -22 -530 -2
-331 0 -492 8 -518 23 -78 112 -146 193 -147 71 0 148 47 185 115 15 26 18 88
22 515 5 427 8 490 23 531 33 87 115 158 184 160 23 1 17 6 -37 31 -115 54
-257 72 -347 43z"/>
<path d="M1840 1654 c-89 -19 -213 -82 -282 -144 -72 -64 -143 -171 -176 -263
-23 -65 -26 -94 -33 -287 -12 -327 -49 -469 -160 -608 l-41 -52 49 0 c153 0
353 121 452 274 72 111 93 187 101 366 7 169 18 207 77 262 58 56 74 58 418
58 l315 0 0 205 0 205 -327 -1 c-240 0 -345 -4 -393 -15z"/>
</g>
</svg>
